# Aspose.3D Wavefront OBJ Exporter
# Copyright 2004-2023 Aspose Pty Ltd.
# File created: 12/29/2023 13:11:36

g obj_64998346

#
# object obj_64998346
#

v -1078.6913 -427.7618 0
v -1358.3263 859.4109 0
v -1358.3263 339.41092 0
v -1078.6913 1857.9966 0
v -272.09863 -1074.3893 0
v -774.75903 2449.478 0
v -272.09863 2872.54 0
v 487.0959 -1474.1238 0
v 336.2006 3104.4302 0
v 695.20056 3104.4302 0
v 1476.1187 -1474.1238 0
v 1386.7904 3231.9917 1.4438228E-12
v 2129.4963 3231.9917 1.4438228E-12
v 2235.2449 -1074.3893 0
v 2704.519 2957.9153 1.4438228E-12
v 2746.6736 -805.08527 0
v 3200.104 2721.702 1.4438228E-12
v 3181.3088 -427.7618 0
v 3499.8628 195.55464 0
v 3478.9727 2433.547 1.4438229E-12
v 4273.443 2286.3013 1.4438228E-12
v 3867.1846 411.3106 0
v 4195.1846 411.3106 0
v 4570.938 195.55464 0
v 4945.9893 2161.6526 1.4438227E-12
v 4898.211 -195.58792 -1.443133E-12
v 5448.887 -427.7618 0
v 5562.9565 1897.8495 1.4439714E-12
v 5960.887 -427.7618 0
v 6064.9565 1897.8495 1.4439714E-12
v 6464.147 -195.58792 -1.443133E-12
v 6736.252 1588.845 0
v 6736.252 195.55464 0
v 6975.877 786.84467 0
v 6975.877 1236.8447 0
# 35 vertices

vn -2.233668E-17 -3.08341E-16 1
# 1 vertex normals

s 1
f 1//1 2//1 3//1
f 2//1 1//1 4//1
f 4//1 1//1 5//1
f 4//1 5//1 6//1
f 6//1 5//1 7//1
f 7//1 5//1 8//1
f 7//1 8//1 9//1
f 9//1 8//1 10//1
f 10//1 8//1 11//1
f 10//1 11//1 12//1
f 12//1 11//1 13//1
f 13//1 11//1 14//1
f 13//1 14//1 15//1
f 15//1 14//1 16//1
f 15//1 16//1 17//1
f 17//1 16//1 18//1
f 17//1 18//1 19//1
f 17//1 19//1 20//1
f 20//1 19//1 21//1
f 21//1 19//1 22//1
f 21//1 22//1 23//1
f 21//1 23//1 24//1
f 21//1 24//1 25//1
f 25//1 24//1 26//1
f 25//1 26//1 27//1
f 25//1 27//1 28//1
f 28//1 27//1 29//1
f 28//1 29//1 30//1
f 30//1 29//1 31//1
f 30//1 31//1 32//1
f 32//1 31//1 33//1
f 32//1 33//1 34//1
f 32//1 34//1 35//1
#33 polygons

