# Aspose.3D Wavefront OBJ Exporter
# Copyright 2004-2023 Aspose Pty Ltd.
# File created: 12/21/2023 14:34:57

g obj_3956607

#
# object obj_3956607
#

v 24.148146 -6.470476 0
v 21.650635 -12.5 32.752605
v 21.650635 -12.5 0
v 23.390022 -8.30075 32.752605
v 24.148146 -6.470476 32.77478
v 25 0 0
v 24.732296 -2.0334122 32.77478
v 25 -6.2591275E-17 32.79774
v 24.406727 4.5063505 32.79774
v 24.148146 6.470476 0
v 24.148146 6.470476 32.81992
v 21.650635 12.5 0
v 22.33035 10.859022 32.81992
v 21.650635 12.5 32.839806
v 17.67767 17.67767 0
v 18.560524 16.527111 32.839806
v 17.67767 17.67767 32.85604
v 12.5 21.650635 32.86752
v 12.5 21.650635 0
v 13.313567 21.026363 32.85604
v 6.470476 24.148146 32.873463
v 6.470476 24.148146 0
v 6.9608965 23.945007 32.86752
v -12.5 21.650635 32.86752
v -6.470476 24.148146 0
v -12.5 21.650635 0
v -6.9608965 23.945007 32.86752
v -6.470476 24.148146 32.873463
v -17.67767 17.67767 32.85604
v -17.67767 17.67767 0
v -13.313567 21.026363 32.85604
v -21.650635 12.5 32.839806
v -21.650635 12.5 0
v -18.560524 16.527111 32.839806
v -22.33035 10.859022 32.81992
v -24.148146 6.470476 0
v -24.148146 6.470476 32.81992
v -25 -3.009456E-15 32.79774
v -25 -3.0616169E-15 0
v -24.406727 4.5063505 32.79774
v -24.732296 -2.0334122 32.77478
v -24.148146 -6.470476 0
v -24.148146 -6.470476 32.77478
v -23.390022 -8.30075 32.752605
v -21.650635 -12.5 0
v -21.650635 -12.5 32.752605
v -20.569365 -13.90914 32.73272
v -17.67767 -17.67767 0
v -17.67767 -17.67767 32.73272
v -12.5 -21.650635 32.716484
v -12.5 -21.650635 0
v -16.527111 -18.560524 32.716484
v -6.470476 -24.148146 32.705
v -6.470476 -24.148146 0
v -11.552581 -22.04307 32.705
v 1.1397975E-15 -25 32.699062
v 1.5308084E-15 -25 0
v -5.9441905 -24.217432 32.699062
v 6.470476 -24.148146 32.705
v 6.470476 -24.148146 0
v 5.9441905 -24.217432 32.699062
v 12.5 -21.650635 32.716484
v 12.5 -21.650635 0
v 11.552581 -22.04307 32.705
v 17.67767 -17.67767 32.73272
v 17.67767 -17.67767 0
v 16.527111 -18.560524 32.716484
v 20.569365 -13.90914 32.73272
v 9.0489676E-13 25 32.873463
v -4.5924254E-15 25 0
v -59.35139 100.76621 36.804638
v -83.93554 81.90213 36.804638
v 9.023893E-13 116.66937 36.804638
v -30.722542 112.62467 36.804638
v 118.70278 -2.0334122 36.804638
v 274.43 71.499886 0
v 114.65808 28.689129 36.804638
v 284.11084 -2.0334122 0
v 246.04721 140.022 0
v 102.79962 57.317978 36.804638
v 30.722542 112.62467 36.804638
v 1.3534076E-12 282.07742 0
v 73.533295 272.3966 0
v 274.43 -75.56671 0
v 114.65808 -32.755955 36.804638
v -73.533295 272.3966 0
v 59.35139 100.76621 36.804638
v 142.05542 244.0138 0
v 83.93554 81.90213 36.804638
v 200.89671 198.8633 0
v 246.04721 -144.08884 0
v 102.79962 -61.384804 36.804638
v 200.89671 -202.93011 0
v 83.93554 -85.968956 36.804638
v 142.05542 -248.08063 0
v 59.35139 -104.83304 36.804638
v 73.533295 -276.4634 0
v 30.722542 -116.6915 36.804638
v 1.9852564E-12 -120.7362 36.804638
v 1.7973859E-12 -286.14426 0
v -30.722542 -116.6915 36.804638
v -73.533295 -276.4634 0
v -59.35139 -104.83304 36.804638
v -142.05542 -248.08063 0
v -83.93554 -85.968956 36.804638
v -200.89671 -202.93011 0
v -102.79962 -61.384804 36.804638
v -246.04721 -144.08884 0
v -114.65808 -32.755955 36.804638
v -274.43 -75.56671 0
v -118.70278 -2.0334122 36.804638
v -284.11084 -2.0334122 0
v -274.43 71.499886 0
v -114.65808 28.689129 36.804638
v -246.04721 140.022 0
v -102.79962 57.317978 36.804638
v -200.89671 198.8633 0
v -142.05542 244.0138 0
# 118 vertices

vn 0.9238795 -0.38268343 -9.5499755E-18
vn 0.9914449 -0.13052619 -3.4427625E-18
vn 0.9914449 0.13052619 6.534997E-17
vn 0.9238795 0.38268343 -5.1434483E-18
vn 0.7933533 0.6087614 -3.139766E-17
vn 0.6087614 0.7933533 7.6465155E-18
vn 0.38268343 0.9238795 2.3760707E-17
vn -0.38268343 0.9238795 1.108833E-17
vn -0.6087614 0.7933533 -5.734886E-17
vn -0.7933533 0.6087614 -6.0832967E-17
vn -0.9238795 0.38268343 -1.2858621E-17
vn -0.9914449 0.13052619 -2.823764E-18
vn -0.9914449 -0.13052619 1.33660194E-17
vn -0.9238795 -0.38268343 2.4309028E-17
vn -0.7933533 -0.6087614 -2.1075679E-17
vn -0.6087614 -0.7933533 -6.5246716E-17
vn -0.38268343 -0.9238795 -6.295643E-17
vn -0.13052619 -0.9914449 -8.276962E-17
vn 0.13052619 -0.9914449 2.1624495E-17
vn 0.38268343 -0.9238795 6.626993E-18
vn 0.6087614 -0.7933533 -1.08744525E-16
vn 0.7933533 -0.6087614 -1.0036038E-17
vn 0.13052619 0.9914449 -6.358878E-17
vn -0.13052619 0.9914449 3.548717E-15
vn 0.026306963 -0.0342839 0.9990658
vn 0.0056405473 -0.04284421 0.9990658
vn 0.21710765 0.028582765 0.9757291
vn 0.20231213 0.08380043 0.9757291
vn 0.028582765 0.21710765 0.9757291
vn 0.21710765 -0.028582765 0.9757291
vn -0.028582765 0.21710765 0.9757291
vn 0.08380043 0.20231213 0.9757291
vn 0.13330723 0.17372936 0.9757291
vn 0.17372936 0.13330723 0.9757291
vn 0.20231213 -0.08380043 0.9757291
vn 0.17372936 -0.13330723 0.9757291
vn 0.13330723 -0.17372936 0.9757291
vn 0.08380043 -0.20231213 0.9757291
vn 0.028582765 -0.21710765 0.9757291
vn -0.028582765 -0.21710765 0.9757291
vn -0.08380043 -0.20231213 0.9757291
vn -0.13330723 -0.17372936 0.9757291
vn -0.17372936 -0.13330723 0.9757291
vn -0.20231213 -0.08380043 0.9757291
vn -0.21710765 -0.028582765 0.9757291
vn -0.21710765 0.028582765 0.9757291
vn -0.20231213 0.08380043 0.9757291
vn -0.17372936 0.13330723 0.9757291
vn -0.13330723 0.17372936 0.9757291
vn -0.08380043 0.20231213 0.9757291
vn 0.0342839 -0.026306963 0.9990658
vn 0.016537247 -0.039924446 0.9990658
vn 0.039924446 -0.016537247 0.9990658
vn 0.04284421 -0.0056405473 0.9990658
vn 0.04284421 0.0056405473 0.9990658
vn 0.039924446 0.016537247 0.9990658
vn 0.0342839 0.026306963 0.9990658
vn 0.026306963 0.0342839 0.9990658
vn 0.016537247 0.039924446 0.9990658
vn 0.0056405473 0.04284421 0.9990658
vn -0.0056405473 0.04284421 0.9990658
vn -0.016537247 0.039924446 0.9990658
vn -0.026306963 0.0342839 0.9990658
vn -0.0342839 0.026306963 0.9990658
vn -0.039924446 0.016537247 0.9990658
vn -0.04284421 0.0056405473 0.9990658
vn -0.04284421 -0.0056405473 0.9990658
vn -0.039924446 -0.016537247 0.9990658
vn -0.0342839 -0.026306963 0.9990658
vn -0.026306963 -0.0342839 0.9990658
vn -0.016537247 -0.039924446 0.9990658
vn -0.0056405473 -0.04284421 0.9990658
vn 0 0 -1
# 73 vertex normals

s 1
f 1//1 2//1 3//1
f 2//1 1//1 4//1
f 4//1 1//1 5//1
f 6//2 5//2 1//2
f 5//2 6//2 7//2
f 7//2 6//2 8//2
f 6//3 9//3 8//3
f 9//3 6//3 10//3
f 9//3 10//3 11//3
f 12//4 11//4 10//4
f 11//4 12//4 13//4
f 13//4 12//4 14//4
f 15//5 14//5 12//5
f 14//5 15//5 16//5
f 16//5 15//5 17//5
f 18//6 15//6 19//6
f 15//6 18//6 20//6
f 17//6 15//6 20//6
f 21//7 19//7 22//7
f 19//7 21//7 23//7
f 18//7 19//7 23//7
f 24//8 25//8 26//8
f 25//8 24//8 27//8
f 25//8 27//8 28//8
f 29//9 26//9 30//9
f 26//9 29//9 31//9
f 26//9 31//9 24//9
f 32//10 30//10 33//10
f 30//10 32//10 34//10
f 30//10 34//10 29//10
f 35//11 36//11 37//11
f 36//11 35//11 33//11
f 33//11 35//11 32//11
f 38//12 36//12 39//12
f 36//12 38//12 40//12
f 36//12 40//12 37//12
f 41//13 42//13 43//13
f 42//13 41//13 39//13
f 39//13 41//13 38//13
f 44//14 45//14 46//14
f 45//14 44//14 42//14
f 42//14 44//14 43//14
f 47//15 48//15 49//15
f 48//15 47//15 45//15
f 45//15 47//15 46//15
f 50//16 48//16 51//16
f 48//16 50//16 52//16
f 48//16 52//16 49//16
f 53//17 51//17 54//17
f 51//17 53//17 55//17
f 51//17 55//17 50//17
f 56//18 54//18 57//18
f 54//18 56//18 58//18
f 54//18 58//18 53//18
f 59//19 57//19 60//19
f 57//19 59//19 61//19
f 56//19 57//19 61//19
f 62//20 60//20 63//20
f 60//20 62//20 64//20
f 60//20 64//20 59//20
f 65//21 63//21 66//21
f 63//21 65//21 67//21
f 63//21 67//21 62//21
f 66//22 68//22 65//22
f 68//22 66//22 3//22
f 68//22 3//22 2//22
f 69//23 22//23 70//23
f 22//23 69//23 21//23
f 28//24 70//24 25//24
f 70//24 28//24 69//24
f 34//25 71//25 72//25
f 71//25 34//25 29//25
f 71//25 29//25 31//25
f 27//26 73//26 74//26
f 73//26 27//26 28//26
f 73//26 28//26 69//26
f 75//27 76//27 77//27
f 76//27 75//27 78//27
f 77//28 79//28 80//28
f 79//28 77//28 76//28
f 81//29 82//29 73//29
f 82//29 81//29 83//29
f 84//30 75//30 85//30
f 75//30 84//30 78//30
f 74//31 82//31 86//31
f 82//31 74//31 73//31
f 87//32 83//32 81//32
f 83//32 87//32 88//32
f 89//33 88//33 87//33
f 88//33 89//33 90//33
f 80//34 90//34 89//34
f 90//34 80//34 79//34
f 91//35 85//35 92//35
f 85//35 91//35 84//35
f 93//36 92//36 94//36
f 92//36 93//36 91//36
f 95//37 94//37 96//37
f 94//37 95//37 93//37
f 97//38 96//38 98//38
f 96//38 97//38 95//38
f 97//39 99//39 100//39
f 99//39 97//39 98//39
f 100//40 101//40 102//40
f 101//40 100//40 99//40
f 102//41 103//41 104//41
f 103//41 102//41 101//41
f 104//42 105//42 106//42
f 105//42 104//42 103//42
f 106//43 107//43 108//43
f 107//43 106//43 105//43
f 108//44 109//44 110//44
f 109//44 108//44 107//44
f 110//45 111//45 112//45
f 111//45 110//45 109//45
f 111//46 113//46 112//46
f 113//46 111//46 114//46
f 114//47 115//47 113//47
f 115//47 114//47 116//47
f 116//48 117//48 115//48
f 117//48 116//48 72//48
f 72//49 118//49 117//49
f 118//49 72//49 71//49
f 71//50 86//50 118//50
f 86//50 71//50 74//50
f 35//51 72//51 116//51
f 72//51 35//51 32//51
f 72//51 32//51 34//51
f 31//52 74//52 71//52
f 74//52 31//52 24//52
f 74//52 24//52 27//52
f 40//53 116//53 114//53
f 116//53 40//53 37//53
f 116//53 37//53 35//53
f 41//54 114//54 111//54
f 114//54 41//54 38//54
f 40//54 114//54 38//54
f 109//55 41//55 111//55
f 41//55 109//55 43//55
f 43//55 109//55 44//55
f 107//56 44//56 109//56
f 44//56 107//56 46//56
f 46//56 107//56 47//56
f 105//57 47//57 107//57
f 47//57 105//57 49//57
f 49//57 105//57 52//57
f 103//58 52//58 105//58
f 52//58 103//58 50//58
f 50//58 103//58 55//58
f 101//59 55//59 103//59
f 55//59 101//59 53//59
f 53//59 101//59 58//59
f 99//60 58//60 101//60
f 58//60 99//60 56//60
f 99//61 61//61 56//61
f 61//61 99//61 98//61
f 98//62 59//62 61//62
f 59//62 98//62 64//62
f 64//62 98//62 96//62
f 96//63 62//63 64//63
f 62//63 96//63 67//63
f 67//63 96//63 94//63
f 94//64 65//64 67//64
f 65//64 94//64 68//64
f 68//64 94//64 92//64
f 92//65 2//65 68//65
f 2//65 92//65 4//65
f 4//65 92//65 85//65
f 85//66 5//66 4//66
f 5//66 85//66 7//66
f 7//66 85//66 75//66
f 75//67 8//67 7//67
f 8//67 75//67 77//67
f 77//67 9//67 8//67
f 11//68 80//68 13//68
f 80//68 11//68 9//68
f 80//68 9//68 77//68
f 14//69 89//69 16//69
f 89//69 14//69 13//69
f 89//69 13//69 80//69
f 17//70 87//70 20//70
f 87//70 17//70 16//70
f 87//70 16//70 89//70
f 18//71 81//71 23//71
f 81//71 18//71 20//71
f 81//71 20//71 87//71
f 69//72 81//72 73//72
f 81//72 69//72 21//72
f 81//72 21//72 23//72
f 113//73 110//73 112//73
f 110//73 113//73 115//73
f 110//73 115//73 108//73
f 108//73 115//73 106//73
f 106//73 115//73 117//73
f 106//73 117//73 118//73
f 106//73 118//73 104//73
f 104//73 118//73 102//73
f 102//73 118//73 86//73
f 102//73 86//73 100//73
f 100//73 86//73 82//73
f 100//73 82//73 83//73
f 100//73 83//73 97//73
f 97//73 83//73 95//73
f 95//73 83//73 88//73
f 95//73 88//73 93//73
f 93//73 88//73 90//73
f 93//73 90//73 91//73
f 91//73 90//73 79//73
f 91//73 79//73 84//73
f 84//73 79//73 76//73
f 84//73 76//73 78//73
#210 polygons

