# This file uses centimeters as units for non-parametric coordinates.

mtllib Taipei_101.mtl
g default
v -1650.000000 -16866.246547 1650.000000
v 1650.000000 -16866.246547 1650.000000
v -907.032837 -4866.246547 897.866150
v 907.032837 -4866.246547 897.866150
v -907.032837 -4866.246547 -897.866150
v 907.032837 -4866.246547 -897.866150
v -1650.000000 -16866.246547 -1650.000000
v 1650.000000 -16866.246547 -1650.000000
v -1058.755249 -3123.645961 1032.020020
v 1058.755249 -3123.645961 1032.020020
v 1058.755249 -3123.645961 -1032.020020
v -1058.755249 -3123.645961 -1032.020020
v -885.118530 -3123.645961 891.566162
v 885.118530 -3123.645961 891.566162
v 885.118530 -3123.645961 -891.566162
v -885.118530 -3123.645961 -891.566162
v -1069.027222 -1398.508265 965.182495
v 1069.027222 -1398.508265 965.182495
v 1069.027222 -1398.508265 -965.182495
v -1069.027222 -1398.508265 -965.182495
v -929.806152 -1398.508265 823.840820
v 929.806152 -1398.508265 823.840820
v 929.806152 -1398.508265 -823.840759
v -929.806152 -1398.508265 -823.840759
v -1057.255371 167.988805 920.570862
v 1057.255371 167.988805 920.570862
v 1057.255371 167.988805 -920.570801
v -1057.255371 167.988805 -920.570801
v -926.890015 167.988805 804.852661
v 926.890015 167.988805 804.852661
v 926.890015 167.988805 -804.852600
v -926.890015 167.988805 -804.852600
v -1079.240234 1665.539586 974.502319
v 1079.240234 1665.539586 974.502319
v 1079.240234 1665.539586 -974.502197
v -1079.240234 1665.539586 -974.502197
v -947.875122 1665.539586 844.518799
v 947.875122 1665.539586 844.518799
v 947.875122 1665.539586 -844.518677
v -947.875122 1665.539586 -844.518677
v -1116.092041 3141.507360 1014.529785
v 1116.092041 3141.507360 1014.529785
v 1116.092041 3141.507360 -1014.529663
v -1116.092041 3141.507360 -1014.529663
v -921.805542 3141.507360 890.966919
v 921.805542 3141.507360 890.966919
v 921.805542 3141.507360 -890.966797
v -921.805542 3141.507360 -890.966797
v -1080.819824 4591.327672 1049.486572
v 1080.819824 4591.327672 1049.486572
v 1080.819824 4591.327672 -1049.486450
v -1080.819824 4591.327672 -1049.486450
v -1080.819824 4591.327672 1049.486572
v 1080.819824 4591.327672 1049.486572
v 1080.819824 4591.327672 -1049.486450
v -1080.819824 4591.327672 -1049.486450
v -882.657715 4591.327672 869.425415
v 882.657715 4591.327672 869.425415
v 882.657715 4591.327672 -869.425293
v -882.657715 4591.327672 -869.425293
v -1064.621826 6272.939000 1070.296753
v 1064.621826 6272.939000 1070.296753
v 1064.621826 6272.939000 -1070.296631
v -1064.621826 6272.939000 -1070.296631
v -925.893250 6272.939000 879.152161
v 925.893250 6272.939000 879.152161
v 925.893250 6272.939000 -879.152039
v -925.893250 6272.939000 -879.152039
v -1090.816528 7937.937047 1112.905518
v 1090.816528 7937.937047 1112.905518
v 1090.816528 7937.937047 -1112.905396
v -1090.816528 7937.937047 -1112.905396
v -906.001221 7937.937047 941.901367
v 906.001221 7937.937047 941.901367
v 906.001221 7937.937047 -941.901245
v -906.001221 7937.937047 -941.901245
v -674.606750 7937.937047 679.034302
v 674.606689 7937.937047 679.034302
v 674.606689 7937.937047 -679.034180
v -674.606750 7937.937047 -679.034180
v -674.606750 8482.622594 679.034302
v -337.337128 8819.892125 341.764679
v 337.337067 8819.892125 341.764679
v 674.606689 8482.622594 679.034302
v 337.337067 8819.892125 -341.764557
v 674.606689 8482.622594 -679.034180
v -337.337128 8819.892125 -341.764557
v -674.606750 8482.622594 -679.034180
v 451.584167 10427.814000 427.815369
v -451.584229 10427.814000 427.815369
v 451.584167 10427.814000 -427.815247
v -451.584229 10427.814000 -427.815247
v 291.400543 10427.814000 295.141418
v -291.400604 10427.814000 295.141418
v 291.400543 10427.814000 -295.141296
v -291.400604 10427.814000 -295.141296
v 106.772652 11187.245641 120.933571
v 223.058197 11082.147985 235.777084
v -223.058258 11082.147985 235.777084
v -106.772713 11187.245641 120.933571
v 106.051193 11187.245641 -120.211990
v 223.058197 11082.147985 -235.776962
v -106.772713 11187.245641 -120.933449
v -223.058258 11082.147985 -235.776962
v 106.772652 13590.704625 120.945244
v -106.772713 13590.704625 120.945244
v 106.051193 13590.704625 -120.200317
v -106.772713 13590.704625 -120.921776
vt 0.375000 0.000000
vt 0.625000 0.000000
vt 0.375000 0.250000
vt 0.625000 0.250000
vt 0.375000 0.500000
vt 0.625000 0.500000
vt 0.375000 0.750000
vt 0.625000 0.750000
vt 0.375000 1.000000
vt 0.625000 1.000000
vt 0.875000 0.000000
vt 0.875000 0.250000
vt 0.125000 0.000000
vt 0.125000 0.250000
vt 0.375000 0.250000
vt 0.625000 0.250000
vt 0.625000 0.500000
vt 0.375000 0.500000
vt 0.375000 0.250000
vt 0.625000 0.250000
vt 0.625000 0.500000
vt 0.375000 0.500000
vt 0.375000 0.250000
vt 0.625000 0.250000
vt 0.625000 0.500000
vt 0.375000 0.500000
vt 0.375000 0.250000
vt 0.625000 0.250000
vt 0.625000 0.500000
vt 0.375000 0.500000
vt 0.375000 0.250000
vt 0.625000 0.250000
vt 0.625000 0.500000
vt 0.375000 0.500000
vt 0.375000 0.250000
vt 0.625000 0.250000
vt 0.625000 0.500000
vt 0.375000 0.500000
vt 0.375000 0.250000
vt 0.625000 0.250000
vt 0.625000 0.500000
vt 0.375000 0.500000
vt 0.375000 0.250000
vt 0.625000 0.250000
vt 0.625000 0.500000
vt 0.375000 0.500000
vt 0.375000 0.250000
vt 0.625000 0.250000
vt 0.625000 0.500000
vt 0.375000 0.500000
vt 0.375000 0.250000
vt 0.625000 0.250000
vt 0.625000 0.500000
vt 0.375000 0.500000
vt 0.375000 0.250000
vt 0.625000 0.250000
vt 0.625000 0.500000
vt 0.375000 0.500000
vt 0.375000 0.250000
vt 0.625000 0.250000
vt 0.625000 0.500000
vt 0.375000 0.500000
vt 0.375000 0.250000
vt 0.625000 0.250000
vt 0.625000 0.500000
vt 0.375000 0.500000
vt 0.375000 0.250000
vt 0.625000 0.250000
vt 0.625000 0.500000
vt 0.375000 0.500000
vt 0.375000 0.250000
vt 0.625000 0.250000
vt 0.625000 0.500000
vt 0.375000 0.500000
vt 0.375000 0.250000
vt 0.625000 0.250000
vt 0.625000 0.500000
vt 0.375000 0.500000
vt 0.375000 0.250000
vt 0.625000 0.250000
vt 0.625000 0.500000
vt 0.375000 0.500000
vt 0.437494 0.437914
vt 0.437494 0.312086
vt 0.562506 0.312086
vt 0.562506 0.437914
vt 0.625000 0.250000
vt 0.375000 0.250000
vt 0.625000 0.500000
vt 0.625000 0.250000
vt 0.375000 0.500000
vt 0.625000 0.500000
vt 0.375000 0.250000
vt 0.375000 0.500000
vt 0.437494 0.312086
vt 0.562506 0.312086
vt 0.562506 0.437914
vt 0.437494 0.437914
vt 0.531469 0.341371
vt 0.468531 0.341371
vt 0.468531 0.408629
vt 0.531256 0.408429
vt 0.562506 0.312086
vt 0.437494 0.312086
vt 0.562506 0.437914
vt 0.562506 0.312086
vt 0.437494 0.437914
vt 0.562506 0.437914
vt 0.437494 0.312086
vt 0.437494 0.437914
vt 0.468531 0.341371
vt 0.531469 0.341371
vt 0.531256 0.408429
vt 0.468531 0.408629
vn 0.000000 0.062555 0.998042
vn 0.000000 0.062555 0.998042
vn 0.000000 0.048403 0.998828
vn 0.000000 0.048403 0.998828
vn 0.000000 0.048403 -0.998828
vn 0.000000 0.048403 -0.998828
vn 0.000000 0.062555 -0.998042
vn 0.000000 0.062555 -0.998042
vn 0.000000 -1.000000 0.000000
vn 0.000000 -1.000000 0.000000
vn 0.000000 -1.000000 0.000000
vn 0.000000 -1.000000 0.000000
vn 0.998089 0.061796 0.000000
vn 0.998089 0.061796 0.000000
vn 0.998896 0.046984 0.000000
vn 0.998896 0.046984 0.000000
vn -0.998089 0.061796 0.000000
vn -0.998089 0.061796 0.000000
vn -0.998896 0.046984 0.000000
vn -0.998896 0.046984 0.000000
vn 0.000000 -0.076758 0.997050
vn 0.000000 -0.076758 0.997050
vn 0.996231 -0.086739 0.000000
vn 0.996231 -0.086739 0.000000
vn 0.000000 -0.076758 -0.997050
vn 0.000000 -0.076758 -0.997050
vn -0.996231 -0.086739 0.000000
vn -0.996231 -0.086739 0.000000
vn 0.000000 1.000000 0.000003
vn 0.000000 1.000000 0.000003
vn 0.000000 1.000000 0.000003
vn 0.000000 1.000000 0.000003
vn 0.000000 1.000000 0.000000
vn 0.000000 1.000000 0.000000
vn 0.000000 1.000000 0.000000
vn 0.000000 1.000000 0.000000
vn 0.000000 1.000000 -0.000003
vn 0.000000 1.000000 -0.000003
vn 0.000000 1.000000 -0.000003
vn 0.000000 1.000000 -0.000003
vn 0.000000 1.000000 0.000000
vn 0.000000 1.000000 0.000000
vn 0.000000 1.000000 0.000000
vn 0.000000 1.000000 0.000000
vn 0.000000 -0.042634 0.999091
vn 0.000000 -0.042634 0.999091
vn 0.000000 -0.042634 0.999091
vn 0.000000 -0.042634 0.999091
vn 0.994366 -0.106005 0.000000
vn 0.994366 -0.106005 0.000000
vn 0.994366 -0.106005 0.000000
vn 0.994366 -0.106005 0.000000
vn 0.000000 -0.042634 -0.999091
vn 0.000000 -0.042634 -0.999091
vn 0.000000 -0.042634 -0.999091
vn 0.000000 -0.042634 -0.999091
vn -0.994366 -0.106005 0.000000
vn -0.994366 -0.106005 0.000000
vn -0.994366 -0.106005 0.000000
vn -0.994366 -0.106005 0.000000
vn 0.000000 1.000000 -0.000005
vn 0.000000 1.000000 -0.000005
vn 0.000000 1.000000 -0.000005
vn 0.000000 1.000000 -0.000005
vn 0.000000 1.000000 0.000000
vn 0.000000 1.000000 0.000000
vn 0.000000 1.000000 0.000000
vn 0.000000 1.000000 0.000000
vn 0.000000 1.000000 0.000005
vn 0.000000 1.000000 0.000005
vn 0.000000 1.000000 0.000005
vn 0.000000 1.000000 0.000005
vn 0.000000 1.000000 0.000000
vn 0.000000 1.000000 0.000000
vn 0.000000 1.000000 0.000000
vn 0.000000 1.000000 0.000000
vn 0.000000 -0.061632 0.998099
vn 0.000000 -0.061632 0.998099
vn 0.000000 -0.061632 0.998099
vn 0.000000 -0.061632 0.998099
vn 0.996707 -0.081091 0.000000
vn 0.996707 -0.081091 0.000000
vn 0.996707 -0.081091 0.000000
vn 0.996707 -0.081091 0.000000
vn 0.000000 -0.061632 -0.998099
vn 0.000000 -0.061632 -0.998099
vn 0.000000 -0.061632 -0.998099
vn 0.000000 -0.061632 -0.998099
vn -0.996707 -0.081091 0.000000
vn -0.996707 -0.081091 0.000000
vn -0.996707 -0.081091 0.000000
vn -0.996707 -0.081091 0.000000
vn 0.000000 1.000000 0.000000
vn 0.000000 1.000000 0.000000
vn 0.000000 1.000000 0.000000
vn 0.000000 1.000000 0.000000
vn 0.000000 1.000000 0.000000
vn 0.000000 1.000000 0.000000
vn 0.000000 1.000000 0.000000
vn 0.000000 1.000000 0.000000
vn 0.000000 1.000000 0.000000
vn 0.000000 1.000000 0.000000
vn 0.000000 1.000000 0.000000
vn 0.000000 1.000000 0.000000
vn 0.000000 1.000000 0.000000
vn 0.000000 1.000000 0.000000
vn 0.000000 1.000000 0.000000
vn 0.000000 1.000000 0.000000
vn 0.000000 -0.112565 0.993644
vn 0.000000 -0.112565 0.993644
vn 0.000000 -0.112565 0.993644
vn 0.000000 -0.112565 0.993644
vn 0.994865 -0.101210 0.000000
vn 0.994865 -0.101210 0.000000
vn 0.994865 -0.101210 0.000000
vn 0.994865 -0.101210 0.000000
vn 0.000000 -0.112565 -0.993644
vn 0.000000 -0.112565 -0.993644
vn 0.000000 -0.112565 -0.993644
vn 0.000000 -0.112565 -0.993644
vn -0.994865 -0.101211 0.000000
vn -0.994865 -0.101211 0.000000
vn -0.994865 -0.101211 0.000000
vn -0.994865 -0.101211 0.000000
vn 0.000000 1.000000 -0.000002
vn 0.000000 1.000000 -0.000002
vn 0.000000 1.000000 -0.000002
vn 0.000000 1.000000 -0.000002
vn 0.000000 1.000000 0.000000
vn 0.000000 1.000000 0.000000
vn 0.000000 1.000000 0.000000
vn 0.000000 1.000000 0.000000
vn 0.000000 1.000000 0.000002
vn 0.000000 1.000000 0.000002
vn 0.000000 1.000000 0.000002
vn 0.000000 1.000000 0.000002
vn 0.000000 1.000000 0.000000
vn 0.000000 1.000000 0.000000
vn 0.000000 1.000000 0.000000
vn 0.000000 1.000000 0.000000
vn 0.000000 -0.114429 0.993431
vn 0.000000 -0.114429 0.993431
vn 0.000000 -0.114429 0.993431
vn 0.000000 -0.114429 0.993431
vn 0.993568 -0.113237 0.000000
vn 0.993568 -0.113237 0.000000
vn 0.993568 -0.113237 0.000000
vn 0.993568 -0.113237 0.000000
vn 0.000000 -0.114429 -0.993431
vn 0.000000 -0.114429 -0.993431
vn 0.000000 -0.114429 -0.993431
vn 0.000000 -0.114429 -0.993431
vn -0.993568 -0.113237 0.000000
vn -0.993568 -0.113237 0.000000
vn -0.993568 -0.113237 0.000000
vn -0.993568 -0.113237 0.000000
vn 0.000000 1.000000 -0.000002
vn 0.000000 1.000000 -0.000002
vn 0.000000 1.000000 -0.000002
vn 0.000000 1.000000 -0.000002
vn 0.000000 1.000000 0.000000
vn 0.000000 1.000000 0.000000
vn 0.000000 1.000000 0.000000
vn 0.000000 1.000000 0.000000
vn 0.000000 1.000000 0.000002
vn 0.000000 1.000000 0.000002
vn 0.000000 1.000000 0.000002
vn 0.000000 1.000000 0.000002
vn 0.000000 1.000000 0.000000
vn 0.000000 1.000000 0.000000
vn 0.000000 1.000000 0.000000
vn 0.000000 1.000000 0.000000
vn 0.000000 -0.108690 0.994076
vn 0.000000 -0.108690 0.994076
vn 0.000000 -0.108690 0.994076
vn 0.000000 -0.108690 0.994076
vn 0.994039 -0.109025 0.000000
vn 0.994039 -0.109025 0.000000
vn 0.994039 -0.109025 0.000000
vn 0.994039 -0.109025 0.000000
vn 0.000000 -0.108690 -0.994076
vn 0.000000 -0.108690 -0.994076
vn 0.000000 -0.108690 -0.994076
vn 0.000000 -0.108690 -0.994076
vn -0.994039 -0.109025 0.000000
vn -0.994039 -0.109025 0.000000
vn -0.994039 -0.109025 0.000000
vn -0.994039 -0.109025 0.000000
vn 0.000000 0.000000 0.000000
vn 0.000000 0.000000 0.000000
vn 0.000000 0.000000 0.000000
vn 0.000000 0.000000 0.000000
vn 0.000000 0.000000 0.000000
vn 0.000000 0.000000 0.000000
vn 0.000000 0.000000 0.000000
vn 0.000000 0.000000 0.000000
vn 0.000000 0.000000 0.000000
vn 0.000000 0.000000 0.000000
vn 0.000000 0.000000 0.000000
vn 0.000000 0.000000 0.000000
vn 0.000000 0.000000 0.000000
vn 0.000000 0.000000 0.000000
vn 0.000000 0.000000 0.000000
vn 0.000000 0.000000 0.000000
vn 0.000000 1.000000 -0.000001
vn 0.000000 1.000000 -0.000001
vn 0.000000 1.000000 -0.000001
vn 0.000000 1.000000 -0.000001
vn 0.000000 1.000000 0.000000
vn 0.000000 1.000000 0.000000
vn 0.000000 1.000000 0.000000
vn 0.000000 1.000000 0.000000
vn 0.000000 1.000000 0.000001
vn 0.000000 1.000000 0.000001
vn 0.000000 1.000000 0.000001
vn 0.000000 1.000000 0.000001
vn 0.000000 1.000000 0.000000
vn 0.000000 1.000000 0.000000
vn 0.000000 1.000000 0.000000
vn 0.000000 1.000000 0.000000
vn 0.000000 -0.118608 0.992941
vn 0.000000 -0.118608 0.992941
vn 0.000000 -0.118608 0.992941
vn 0.000000 -0.118608 0.992941
vn 0.994196 -0.107580 0.000000
vn 0.994196 -0.107580 0.000000
vn 0.994196 -0.107580 0.000000
vn 0.994196 -0.107580 0.000000
vn 0.000000 -0.118608 -0.992941
vn 0.000000 -0.118608 -0.992941
vn 0.000000 -0.118608 -0.992941
vn 0.000000 -0.118608 -0.992941
vn -0.994196 -0.107580 0.000000
vn -0.994196 -0.107580 0.000000
vn -0.994196 -0.107580 0.000000
vn -0.994196 -0.107580 0.000000
vn 0.000000 1.000000 -0.000003
vn 0.000000 1.000000 -0.000003
vn 0.000000 1.000000 -0.000003
vn 0.000000 1.000000 -0.000003
vn 0.000000 1.000000 0.000000
vn 0.000000 1.000000 0.000000
vn 0.000000 1.000000 0.000000
vn 0.000000 1.000000 0.000000
vn 0.000000 1.000000 0.000003
vn 0.000000 1.000000 0.000003
vn 0.000000 1.000000 0.000003
vn 0.000000 1.000000 0.000003
vn 0.000000 1.000000 0.000000
vn 0.000000 1.000000 0.000000
vn 0.000000 1.000000 0.000000
vn 0.000000 1.000000 0.000000
vn 0.000000 -0.139029 0.990288
vn 0.000000 -0.139029 0.990288
vn 0.000000 -0.139029 0.990288
vn 0.000000 -0.139029 0.990288
vn 0.995130 -0.098571 0.000000
vn 0.995130 -0.098571 0.000000
vn 0.995130 -0.098571 0.000000
vn 0.995130 -0.098571 0.000000
vn 0.000000 -0.139029 -0.990288
vn 0.000000 -0.139029 -0.990288
vn 0.000000 -0.139029 -0.990288
vn 0.000000 -0.139029 -0.990288
vn -0.995130 -0.098571 0.000000
vn -0.995130 -0.098571 0.000000
vn -0.995130 -0.098571 0.000000
vn -0.995130 -0.098571 0.000000
vn 0.000000 1.000000 0.000003
vn 0.000000 1.000000 0.000003
vn 0.000000 1.000000 0.000003
vn 0.000000 1.000000 0.000003
vn 0.000000 1.000000 0.000000
vn 0.000000 1.000000 0.000000
vn 0.000000 1.000000 0.000000
vn 0.000000 1.000000 0.000000
vn 0.000000 1.000000 -0.000003
vn 0.000000 1.000000 -0.000003
vn 0.000000 1.000000 -0.000003
vn 0.000000 1.000000 -0.000003
vn 0.000000 1.000000 0.000000
vn 0.000000 1.000000 0.000000
vn 0.000000 1.000000 0.000000
vn 0.000000 1.000000 0.000000
vn 0.000000 1.000000 -0.000010
vn 0.000000 1.000000 -0.000010
vn 0.000000 1.000000 -0.000010
vn 0.000000 1.000000 -0.000010
vn 0.000000 1.000000 0.000000
vn 0.000000 1.000000 0.000000
vn 0.000000 1.000000 0.000000
vn 0.000000 1.000000 0.000000
vn 0.000000 1.000000 0.000007
vn 0.000000 1.000000 0.000007
vn 0.000000 1.000000 0.000007
vn 0.000000 1.000000 0.000007
vn 0.000000 1.000000 0.000000
vn 0.000000 1.000000 0.000000
vn 0.000000 1.000000 0.000000
vn 0.000000 1.000000 0.000000
vn -0.707107 0.707107 0.000000
vn -0.707107 0.707107 0.000000
vn -0.707107 0.707107 0.000000
vn -0.707107 0.707107 0.000000
vn 0.000000 0.707106 0.707108
vn 0.000000 0.707106 0.707108
vn 0.000000 0.707106 0.707108
vn 0.000000 0.707106 0.707108
vn 0.707107 0.707107 0.000000
vn 0.707107 0.707107 0.000000
vn 0.707107 0.707107 0.000000
vn 0.707107 0.707107 0.000000
vn 0.000000 0.707106 -0.707108
vn 0.000000 0.707106 -0.707108
vn 0.000000 0.707106 -0.707108
vn 0.000000 0.707106 -0.707108
vn 0.000000 0.000000 1.000000
vn 0.000000 0.000000 1.000000
vn 0.000000 0.000000 1.000000
vn 0.000000 0.000000 1.000000
vn 1.000000 0.000000 0.000000
vn 1.000000 0.000000 0.000000
vn 1.000000 0.000000 0.000000
vn 1.000000 0.000000 0.000000
vn 0.000000 0.000000 -1.000000
vn 0.000000 0.000000 -1.000000
vn 0.000000 0.000000 -1.000000
vn 0.000000 0.000000 -1.000000
vn -1.000000 0.000000 0.000000
vn -1.000000 0.000000 0.000000
vn -1.000000 0.000000 0.000000
vn -1.000000 0.000000 0.000000
vn 0.000000 -0.053440 0.998571
vn 0.000000 -0.053440 0.998571
vn 0.000000 -0.053440 0.998571
vn 0.000000 -0.053440 0.998571
vn 0.997485 -0.070874 0.000000
vn 0.997485 -0.070874 0.000000
vn 0.997485 -0.070874 0.000000
vn 0.997485 -0.070874 0.000000
vn 0.000000 -0.053440 -0.998571
vn 0.000000 -0.053440 -0.998571
vn 0.000000 -0.053440 -0.998571
vn 0.000000 -0.053440 -0.998571
vn -0.997485 -0.070874 0.000000
vn -0.997485 -0.070874 0.000000
vn -0.997485 -0.070874 0.000000
vn -0.997485 -0.070874 0.000000
vn 0.000000 1.000000 0.000008
vn 0.000000 1.000000 0.000008
vn 0.000000 1.000000 0.000008
vn 0.000000 1.000000 0.000008
vn 0.000000 1.000000 0.000000
vn 0.000000 1.000000 0.000000
vn 0.000000 1.000000 0.000000
vn 0.000000 1.000000 0.000000
vn 0.000000 1.000000 -0.000008
vn 0.000000 1.000000 -0.000008
vn 0.000000 1.000000 -0.000008
vn 0.000000 1.000000 -0.000008
vn 0.000000 1.000000 0.000000
vn 0.000000 1.000000 0.000000
vn 0.000000 1.000000 0.000000
vn 0.000000 1.000000 0.000000
vn 0.669372 0.742927 -0.000678
vn 0.669372 0.742927 -0.000678
vn 0.669372 0.742927 -0.000678
vn 0.669372 0.742927 -0.000678
vn 0.000000 0.737710 0.675117
vn 0.000000 0.737710 0.675117
vn 0.000000 0.737710 0.675117
vn 0.000000 0.737710 0.675117
vn -0.670517 0.741895 0.000000
vn -0.670517 0.741895 0.000000
vn -0.670517 0.741895 0.000000
vn -0.670517 0.741895 0.000000
vn 0.000738 0.738770 -0.673957
vn 0.000738 0.738770 -0.673957
vn 0.000738 0.738770 -0.673957
vn 0.000738 0.738770 -0.673957
vn 0.000000 1.000000 0.000000
vn 0.000000 1.000000 0.000000
vn 0.000000 1.000000 0.000000
vn 0.000000 1.000000 0.000000
vn 0.000000 0.090354 0.995910
vn 0.000000 0.090354 0.995910
vn 0.000000 0.090354 0.995910
vn 0.000000 0.090354 0.995910
vn 0.994590 0.103881 0.000000
vn 0.994590 0.103881 0.000000
vn 0.994590 0.103881 0.000000
vn 0.994590 0.103881 0.000000
vn 0.000000 0.090354 -0.995910
vn 0.000000 0.090354 -0.995910
vn 0.000000 0.090354 -0.995910
vn 0.000000 0.090354 -0.995910
vn -0.994590 0.103881 0.000000
vn -0.994590 0.103881 0.000000
vn -0.994590 0.103881 0.000000
vn -0.994590 0.103881 0.000000
vn 0.000000 -0.000005 1.000000
vn 0.000000 -0.000005 1.000000
vn 0.000000 -0.000005 1.000000
vn 0.000000 -0.000005 1.000000
vn 0.999996 0.000000 -0.002992
vn 0.999996 0.000000 -0.002992
vn 0.999996 0.000000 -0.002992
vn 0.999996 0.000000 -0.002992
vn 0.003390 0.000005 -0.999994
vn 0.003390 0.000005 -0.999994
vn 0.003390 0.000005 -0.999994
vn 0.003390 0.000005 -0.999994
vn -1.000000 -0.000000 0.000000
vn -1.000000 -0.000000 0.000000
vn -1.000000 -0.000000 0.000000
vn -1.000000 -0.000000 0.000000
s 1
g pCube1
usemtl initialShadingGroup
f 1/1/1 2/2/2 4/4/3 3/3/4
s 2
f 5/5/5 6/6/6 8/8/7 7/7/8
s off
f 7/7/9 8/8/10 2/10/11 1/9/12
s 3
f 2/2/13 8/11/14 6/12/15 4/4/16
s 4
f 7/13/17 1/1/18 3/3/19 5/14/20
s 1
f 3/3/4 4/4/3 10/16/21 9/15/22
s 3
f 4/4/16 6/6/15 11/17/23 10/16/24
s 2
f 6/6/6 5/5/5 12/18/25 11/17/26
s 4
f 5/5/20 3/3/19 9/15/27 12/18/28
s off
f 9/15/29 10/16/30 14/20/31 13/19/32
f 10/16/33 11/17/34 15/21/35 14/20/36
f 11/17/37 12/18/38 16/22/39 15/21/40
f 12/18/41 9/15/42 13/19/43 16/22/44
f 13/19/45 14/20/46 18/24/47 17/23/48
f 14/20/49 15/21/50 19/25/51 18/24/52
f 15/21/53 16/22/54 20/26/55 19/25/56
f 16/22/57 13/19/58 17/23/59 20/26/60
f 17/23/61 18/24/62 22/28/63 21/27/64
f 18/24/65 19/25/66 23/29/67 22/28/68
f 19/25/69 20/26/70 24/30/71 23/29/72
f 20/26/73 17/23/74 21/27/75 24/30/76
f 21/27/77 22/28/78 26/32/79 25/31/80
f 22/28/81 23/29/82 27/33/83 26/32/84
f 23/29/85 24/30/86 28/34/87 27/33/88
f 24/30/89 21/27/90 25/31/91 28/34/92
f 25/31/93 26/32/94 30/36/95 29/35/96
f 26/32/97 27/33/98 31/37/99 30/36/100
f 27/33/101 28/34/102 32/38/103 31/37/104
f 28/34/105 25/31/106 29/35/107 32/38/108
f 29/35/109 30/36/110 34/40/111 33/39/112
f 30/36/113 31/37/114 35/41/115 34/40/116
f 31/37/117 32/38/118 36/42/119 35/41/120
f 32/38/121 29/35/122 33/39/123 36/42/124
f 33/39/125 34/40/126 38/44/127 37/43/128
f 34/40/129 35/41/130 39/45/131 38/44/132
f 35/41/133 36/42/134 40/46/135 39/45/136
f 36/42/137 33/39/138 37/43/139 40/46/140
f 37/43/141 38/44/142 42/48/143 41/47/144
f 38/44/145 39/45/146 43/49/147 42/48/148
f 39/45/149 40/46/150 44/50/151 43/49/152
f 40/46/153 37/43/154 41/47/155 44/50/156
f 41/47/157 42/48/158 46/52/159 45/51/160
f 42/48/161 43/49/162 47/53/163 46/52/164
f 43/49/165 44/50/166 48/54/167 47/53/168
f 44/50/169 41/47/170 45/51/171 48/54/172
f 45/51/173 46/52/174 50/56/175 49/55/176
f 46/52/177 47/53/178 51/57/179 50/56/180
f 47/53/181 48/54/182 52/58/183 51/57/184
f 48/54/185 45/51/186 49/55/187 52/58/188
f 49/55/189 50/56/190 54/60/191 53/59/192
f 50/56/193 51/57/194 55/61/195 54/60/196
f 51/57/197 52/58/198 56/62/199 55/61/200
f 52/58/201 49/55/202 53/59/203 56/62/204
f 53/59/205 54/60/206 58/64/207 57/63/208
f 54/60/209 55/61/210 59/65/211 58/64/212
f 55/61/213 56/62/214 60/66/215 59/65/216
f 56/62/217 53/59/218 57/63/219 60/66/220
f 57/63/221 58/64/222 62/68/223 61/67/224
f 58/64/225 59/65/226 63/69/227 62/68/228
f 59/65/229 60/66/230 64/70/231 63/69/232
f 60/66/233 57/63/234 61/67/235 64/70/236
f 61/67/237 62/68/238 66/72/239 65/71/240
f 62/68/241 63/69/242 67/73/243 66/72/244
f 63/69/245 64/70/246 68/74/247 67/73/248
f 64/70/249 61/67/250 65/71/251 68/74/252
f 65/71/253 66/72/254 70/76/255 69/75/256
f 66/72/257 67/73/258 71/77/259 70/76/260
f 67/73/261 68/74/262 72/78/263 71/77/264
f 68/74/265 65/71/266 69/75/267 72/78/268
f 69/75/269 70/76/270 74/80/271 73/79/272
f 70/76/273 71/77/274 75/81/275 74/80/276
f 71/77/277 72/78/278 76/82/279 75/81/280
f 72/78/281 69/75/282 73/79/283 76/82/284
f 73/79/285 74/80/286 78/87/287 77/93/288
f 74/80/289 75/81/290 79/89/291 78/87/292
f 75/81/293 76/82/294 80/91/295 79/89/296
f 76/82/297 73/79/298 77/93/299 80/91/300
f 81/88/301 82/84/302 87/83/303 88/94/304
f 82/84/305 81/88/306 84/90/307 83/85/308
f 83/85/309 84/90/310 86/92/311 85/86/312
f 85/86/313 86/92/314 88/94/315 87/83/316
f 77/93/317 78/87/318 84/90/319 81/88/320
f 78/87/321 79/89/322 86/92/323 84/90/324
f 79/89/325 80/91/326 88/94/327 86/92/328
f 80/91/329 77/93/330 81/88/331 88/94/332
f 82/84/333 83/85/334 89/96/335 90/95/336
f 83/85/337 85/86/338 91/97/339 89/96/340
f 85/86/341 87/83/342 92/98/343 91/97/344
f 87/83/345 82/84/346 90/95/347 92/98/348
f 90/95/349 89/96/350 93/103/351 94/109/352
f 89/96/353 91/97/354 95/105/355 93/103/356
f 91/97/357 92/98/358 96/107/359 95/105/360
f 92/98/361 90/95/362 94/109/363 96/107/364
f 97/99/365 98/106/366 102/108/367 101/102/368
f 98/106/369 97/99/370 100/100/371 99/104/372
f 99/104/373 100/100/374 103/101/375 104/110/376
f 101/102/377 102/108/378 104/110/379 103/101/380
f 106/111/381 105/112/382 107/113/383 108/114/384
f 94/109/385 93/103/386 98/106/387 99/104/388
f 93/103/389 95/105/390 102/108/391 98/106/392
f 95/105/393 96/107/394 104/110/395 102/108/396
f 96/107/397 94/109/398 99/104/399 104/110/400
f 100/100/401 97/99/402 105/112/403 106/111/404
f 97/99/405 101/102/406 107/113/407 105/112/408
f 101/102/409 103/101/410 108/114/411 107/113/412
f 103/101/413 100/100/414 106/111/415 108/114/416
